<svg width="227" height="227" viewBox="0 0 227 227" fill="none" xmlns="http://www.w3.org/2000/svg">
<g filter="url(#filter0_d_4_29)">
<g clip-path="url(#clip0_4_29)">
<rect x="4" width="219" height="219" fill="#0E0E10"/>
<g filter="url(#filter1_d_4_29)">
<mask id="path-3-outside-1_4_29" maskUnits="userSpaceOnUse" x="67" y="52" width="103" height="119" fill="black">
<rect fill="white" x="67" y="52" width="103" height="119"/>
<path d="M111.04 170H68.96V53.04H109.92C121.44 53.04 131.573 55.5467 140.32 60.56C149.067 65.4667 155.893 72.3467 160.8 81.2C165.813 89.9467 168.32 100.133 168.32 111.76C168.32 123.173 165.867 133.307 160.96 142.16C156.16 150.907 149.44 157.733 140.8 162.64C132.267 167.547 122.347 170 111.04 170ZM89.44 62.48V160.72L79.68 151.12H109.12C116.907 151.12 123.627 149.52 129.28 146.32C134.933 143.12 139.253 138.587 142.24 132.72C145.227 126.853 146.72 119.867 146.72 111.76C146.72 103.44 145.173 96.3467 142.08 90.48C138.987 84.5067 134.56 79.92 128.8 76.72C123.04 73.52 116.107 71.92 108 71.92H79.68L89.44 62.48Z"/>
</mask>
<path d="M111.04 170H68.96V53.04H109.92C121.44 53.04 131.573 55.5467 140.32 60.56C149.067 65.4667 155.893 72.3467 160.8 81.2C165.813 89.9467 168.32 100.133 168.32 111.76C168.32 123.173 165.867 133.307 160.96 142.16C156.16 150.907 149.44 157.733 140.8 162.64C132.267 167.547 122.347 170 111.04 170ZM89.44 62.48V160.72L79.68 151.12H109.12C116.907 151.12 123.627 149.52 129.28 146.32C134.933 143.12 139.253 138.587 142.24 132.72C145.227 126.853 146.72 119.867 146.72 111.76C146.72 103.44 145.173 96.3467 142.08 90.48C138.987 84.5067 134.56 79.92 128.8 76.72C123.04 73.52 116.107 71.92 108 71.92H79.68L89.44 62.48Z" fill="#2EFF7A"/>
<path d="M68.96 170H67.96V171H68.96V170ZM68.96 53.04V52.04H67.96V53.04H68.96ZM140.32 60.56L139.823 61.4276L139.831 61.4321L140.32 60.56ZM160.8 81.2L159.925 81.6847L159.929 81.691L159.932 81.6973L160.8 81.2ZM160.96 142.16L160.085 141.675L160.083 141.679L160.96 142.16ZM140.8 162.64L140.306 161.77L140.302 161.773L140.8 162.64ZM89.44 62.48H90.44V60.1216L88.7448 61.7612L89.44 62.48ZM89.44 160.72L88.7388 161.433L90.44 163.106V160.72H89.44ZM79.68 151.12V150.12H77.2373L78.9788 151.833L79.68 151.12ZM129.28 146.32L129.773 147.19L129.773 147.19L129.28 146.32ZM142.08 90.48L141.192 90.9399L141.195 90.9464L142.08 90.48ZM128.8 76.72L128.314 77.5942L128.314 77.5942L128.8 76.72ZM79.68 71.92L78.9848 71.2012L77.2077 72.92H79.68V71.92ZM111.04 170V169H68.96V170V171H111.04V170ZM68.96 170H69.96V53.04H68.96H67.96V170H68.96ZM68.96 53.04V54.04H109.92V53.04V52.04H68.96V53.04ZM109.92 53.04V54.04C121.291 54.04 131.248 56.5128 139.823 61.4276L140.32 60.56L140.817 59.6924C131.899 54.5806 121.589 52.04 109.92 52.04V53.04ZM140.32 60.56L139.831 61.4321C148.414 66.2471 155.108 72.9922 159.925 81.6847L160.8 81.2L161.675 80.7153C156.679 71.7011 149.719 64.6863 140.809 59.6879L140.32 60.56ZM160.8 81.2L159.932 81.6973C164.846 90.2707 167.32 100.281 167.32 111.76H168.32H169.32C169.32 99.9859 166.78 89.6226 161.668 80.7027L160.8 81.2ZM168.32 111.76H167.32C167.32 123.026 164.9 132.988 160.085 141.675L160.96 142.16L161.835 142.645C166.834 133.625 169.32 123.321 169.32 111.76H168.32ZM160.96 142.16L160.083 141.679C155.372 150.264 148.784 156.956 140.306 161.77L140.8 162.64L141.294 163.51C150.096 158.511 156.948 151.55 161.837 142.641L160.96 142.16ZM140.8 162.64L140.302 161.773C131.941 166.58 122.198 169 111.04 169V170V171C122.495 171 132.592 168.513 141.298 163.507L140.8 162.64ZM89.44 62.48H88.44V160.72H89.44H90.44V62.48H89.44ZM89.44 160.72L90.1412 160.007L80.3812 150.407L79.68 151.12L78.9788 151.833L88.7388 161.433L89.44 160.72ZM79.68 151.12V152.12H109.12V151.12V150.12H79.68V151.12ZM109.12 151.12V152.12C117.045 152.12 123.942 150.491 129.773 147.19L129.28 146.32L128.787 145.45C123.312 148.549 116.768 150.12 109.12 150.12V151.12ZM129.28 146.32L129.773 147.19C135.599 143.892 140.057 139.213 143.131 133.174L142.24 132.72L141.349 132.266C138.45 137.961 134.267 142.348 128.787 145.45L129.28 146.32ZM142.24 132.72L143.131 133.174C146.204 127.138 147.72 119.988 147.72 111.76H146.72H145.72C145.72 119.745 144.249 126.569 141.349 132.266L142.24 132.72ZM146.72 111.76H147.72C147.72 103.318 146.151 96.056 142.965 90.0136L142.08 90.48L141.195 90.9464C144.196 96.6373 145.72 103.562 145.72 111.76H146.72ZM142.08 90.48L142.968 90.0201C139.786 83.876 135.221 79.1435 129.286 75.8458L128.8 76.72L128.314 77.5942C133.899 80.6965 138.187 85.1373 141.192 90.9399L142.08 90.48ZM128.8 76.72L129.286 75.8458C123.347 72.5463 116.238 70.92 108 70.92V71.92V72.92C115.975 72.92 122.733 74.4937 128.314 77.5942L128.8 76.72ZM108 71.92V70.92H79.68V71.92V72.92H108V71.92ZM79.68 71.92L80.3752 72.6388L90.1352 63.1988L89.44 62.48L88.7448 61.7612L78.9848 71.2012L79.68 71.92Z" fill="#4D2323" mask="url(#path-3-outside-1_4_29)"/>
</g>
</g>
<rect x="4.5" y="0.5" width="218" height="218" stroke="#760F0F"/>
</g>
<defs>
<filter id="filter0_d_4_29" x="0" y="0" width="227" height="227" filterUnits="userSpaceOnUse" color-interpolation-filters="sRGB">
<feFlood flood-opacity="0" result="BackgroundImageFix"/>
<feColorMatrix in="SourceAlpha" type="matrix" values="0 0 0 0 0 0 0 0 0 0 0 0 0 0 0 0 0 0 127 0" result="hardAlpha"/>
<feOffset dy="4"/>
<feGaussianBlur stdDeviation="2"/>
<feComposite in2="hardAlpha" operator="out"/>
<feColorMatrix type="matrix" values="0 0 0 0 0 0 0 0 0 0 0 0 0 0 0 0 0 0 0.25 0"/>
<feBlend mode="normal" in2="BackgroundImageFix" result="effect1_dropShadow_4_29"/>
<feBlend mode="normal" in="SourceGraphic" in2="effect1_dropShadow_4_29" result="shape"/>
</filter>
<filter id="filter1_d_4_29" x="63.96" y="52.04" width="109.36" height="126.96" filterUnits="userSpaceOnUse" color-interpolation-filters="sRGB">
<feFlood flood-opacity="0" result="BackgroundImageFix"/>
<feColorMatrix in="SourceAlpha" type="matrix" values="0 0 0 0 0 0 0 0 0 0 0 0 0 0 0 0 0 0 127 0" result="hardAlpha"/>
<feOffset dy="4"/>
<feGaussianBlur stdDeviation="2"/>
<feComposite in2="hardAlpha" operator="out"/>
<feColorMatrix type="matrix" values="0 0 0 0 0 0 0 0 0 0 0 0 0 0 0 0 0 0 0.25 0"/>
<feBlend mode="normal" in2="BackgroundImageFix" result="effect1_dropShadow_4_29"/>
<feBlend mode="normal" in="SourceGraphic" in2="effect1_dropShadow_4_29" result="shape"/>
</filter>
<clipPath id="clip0_4_29">
<rect x="4" width="219" height="219" fill="white"/>
</clipPath>
</defs>
</svg>
