<svg width="1440" height="1024" viewBox="0 0 1440 1024" fill="none" xmlns="http://www.w3.org/2000/svg">
<rect width="1440" height="1024" fill="#0E0E10"/>
<path d="M447.04 574H404.96V457.04H445.92C457.44 457.04 467.573 459.547 476.32 464.56C485.067 469.467 491.893 476.347 496.8 485.2C501.813 493.947 504.32 504.133 504.32 515.76C504.32 527.173 501.867 537.307 496.96 546.16C492.16 554.907 485.44 561.733 476.8 566.64C468.267 571.547 458.347 574 447.04 574ZM425.44 466.48V564.72L415.68 555.12H445.12C452.907 555.12 459.627 553.52 465.28 550.32C470.933 547.12 475.253 542.587 478.24 536.72C481.227 530.853 482.72 523.867 482.72 515.76C482.72 507.44 481.173 500.347 478.08 494.48C474.987 488.507 470.56 483.92 464.8 480.72C459.04 477.52 452.107 475.92 444 475.92H415.68L425.44 466.48ZM592.838 574H520.198V457.04H592.838V475.92H533.478L540.678 469.36V506H587.398V524.08H540.678V561.68L533.478 555.12H592.838V574ZM632.165 457.04V574H611.685V457.04H632.165ZM615.205 574V555.12H680.965V574H615.205ZM707.624 574H686.504L728.744 457.04H749.704L791.944 574H770.344L760.904 546.96H717.224L707.624 574ZM736.584 491.92L723.144 529.68H754.984L741.544 491.92C741.117 490.32 740.637 488.72 740.104 487.12C739.57 485.52 739.25 484.133 739.144 482.96C738.93 484.027 738.557 485.413 738.024 487.12C737.597 488.72 737.117 490.32 736.584 491.92ZM823.89 457.04V574H803.41V457.04H823.89ZM938.616 457.04L862.296 555.28V524.72L914.456 457.04H938.616ZM867.096 457.04V574H846.616V457.04H867.096ZM885.656 522.8L898.776 505.2L939.096 574H915.416L885.656 522.8ZM961.149 574H940.029L982.269 457.04H1003.23L1045.47 574H1023.87L1014.43 546.96H970.749L961.149 574ZM990.109 491.92L976.669 529.68H1008.51L995.069 491.92C994.642 490.32 994.162 488.72 993.629 487.12C993.095 485.52 992.775 484.133 992.669 482.96C992.455 484.027 992.082 485.413 991.549 487.12C991.122 488.72 990.642 490.32 990.109 491.92Z" fill="#2EFF7A"/>
<path d="M593.6 574H520.96V457.04H593.6V475.92H534.24L541.44 469.36V506H588.16V524.08H541.44V561.68L534.24 555.12H593.6V574ZM632.928 457.04V574H612.448V457.04H632.928ZM615.968 574V555.12H681.728V574H615.968ZM708.386 574H687.266L729.506 457.04H750.466L792.706 574H771.106L761.666 546.96H717.986L708.386 574ZM737.346 491.92L723.906 529.68H755.746L742.306 491.92C741.88 490.32 741.4 488.72 740.866 487.12C740.333 485.52 740.013 484.133 739.906 482.96C739.693 484.027 739.32 485.413 738.786 487.12C738.36 488.72 737.88 490.32 737.346 491.92ZM824.652 457.04V574H804.172V457.04H824.652ZM939.379 457.04L863.059 555.28V524.72L915.219 457.04H939.379ZM867.859 457.04V574H847.379V457.04H867.859ZM886.419 522.8L899.539 505.2L939.859 574H916.179L886.419 522.8ZM961.911 574H940.791L983.031 457.04H1003.99L1046.23 574H1024.63L1015.19 546.96H971.511L961.911 574ZM990.871 491.92L977.431 529.68H1009.27L995.831 491.92C995.405 490.32 994.925 488.72 994.391 487.12C993.858 485.52 993.538 484.133 993.431 482.96C993.218 484.027 992.845 485.413 992.311 487.12C991.885 488.72 991.405 490.32 990.871 491.92Z" fill="white"/>
</svg>
